<?xml version="1.0" encoding="utf-8"?>
<!-- Generator: Adobe Illustrator 14.0.0, SVG Export Plug-In . SVG Version: 6.00 Build 43363)  -->
<!DOCTYPE svg PUBLIC "-//W3C//DTD SVG 1.1//EN" "http://www.w3.org/Graphics/SVG/1.1/DTD/svg11.dtd">
<svg version="1.1" id="Icons" xmlns="http://www.w3.org/2000/svg" xmlns:xlink="http://www.w3.org/1999/xlink" x="0px" y="0px"
	 width="15.973px" height="15.973px" viewBox="0 0 15.973 15.973" enable-background="new 0 0 15.973 15.973" xml:space="preserve">
<g>
	<path fill="#6E6E6E" d="M7.9,0C3.538,0,0,3.537,0,7.9s3.538,7.9,7.9,7.9c4.363,0,7.9-3.537,7.9-7.9S12.263,0,7.9,0z M7.9,13.501
		c-3.088,0-5.602-2.513-5.602-5.602S4.812,2.298,7.9,2.298c3.089,0,5.602,2.513,5.602,5.602S10.989,13.501,7.9,13.501z"/>
	<path fill="#6E6E6E" d="M8.586,6.905V4.884c0-0.318-0.257-0.575-0.574-0.575c-0.318,0-0.575,0.257-0.575,0.575v2.298
		c0,0.011,0.006,0.021,0.007,0.032c0.001,0.039,0.012,0.074,0.022,0.111C7.476,7.361,7.483,7.397,7.5,7.43
		c0.014,0.03,0.036,0.056,0.056,0.083C7.58,7.546,7.603,7.579,7.633,7.606c0.008,0.007,0.012,0.018,0.02,0.024l2.873,2.298
		c0.105,0.085,0.232,0.125,0.358,0.125c0.169,0,0.335-0.074,0.45-0.215c0.199-0.248,0.157-0.609-0.09-0.808L8.586,6.905z"/>
</g>
</svg>
