<?xml version="1.0" encoding="utf-8"?>
<!-- Generator: Adobe Illustrator 14.0.0, SVG Export Plug-In . SVG Version: 6.00 Build 43363)  -->
<!DOCTYPE svg PUBLIC "-//W3C//DTD SVG 1.1//EN" "http://www.w3.org/Graphics/SVG/1.1/DTD/svg11.dtd">
<svg version="1.1" id="Layer_1" xmlns="http://www.w3.org/2000/svg" xmlns:xlink="http://www.w3.org/1999/xlink" x="0px" y="0px"
	 width="64.989px" height="64.205px" viewBox="0 0 64.989 64.205" enable-background="new 0 0 64.989 64.205" xml:space="preserve">
<g>
	<path fill="#A2A0A0" d="M30.966,15.483C30.966,6.932,24.034,0,15.483,0S0,6.932,0,15.483c0,7.692,5.615,14.056,12.965,15.261
		V19.615H9.151v-3.812h3.814v-2.337c0-3.156,1.838-5.292,4.469-5.292h3.16v3.755h-2.861c-0.327,0-0.953,0.179-0.953,0.805v3.07
		h3.814v3.812H16.78V30.9C24.723,30.24,30.966,23.596,30.966,15.483z"/>
	<path fill="#7C7C7C" d="M30.966,48.689c0-8.551-6.933-15.482-15.483-15.482S0,40.139,0,48.689c0,7.692,5.615,14.057,12.965,15.262
		V52.822H9.151V49.01h3.814v-2.338c0-3.155,1.838-5.291,4.469-5.291h3.16v3.754h-2.861c-0.327,0-0.953,0.18-0.953,0.805v3.07h3.814
		v3.812H16.78v11.285C24.723,63.447,30.966,56.803,30.966,48.689z"/>
</g>
<g>
	<path fill="#A2A0A0" d="M49.507,0c-8.551,0-15.483,6.932-15.483,15.483c0,8.551,6.933,15.484,15.483,15.484
		s15.482-6.933,15.482-15.484C64.989,6.932,58.058,0,49.507,0z M56.779,15.663c-1.458,5.454-7.12,6.37-9.403,6.37
		c-2.869,0-5.865-1.207-7.455-3.711c0.731,0.597,3.637,2.716,7.062-0.298c-0.936,0.118-2.201-0.746-0.684-1.638
		c-1.141,0.024-1.895-0.436-2.295-1.213c0.176-0.207,0.637-0.523,1.297-0.523c-1.133-0.239-2.105-1.063-2.105-1.958
		c0.281-0.058,0.854-0.149,1.082-0.149c-1.162-0.682-1.634-1.683-1.557-2.402c1.266,0.479,4.693,1.562,6.387,3.385
		c0.791-2.147,1.809-4.015,3.002-4.685c0.012,0.037-0.193,0.451-0.193,0.451s-0.002,0.004-0.003,0.007
		c0.302-0.243,1.038-0.62,1.414-0.62c0.034,0.092-0.065,0.32-0.604,0.618c0.445-0.169,0.843-0.313,1.187-0.313
		c0.285,0,0.305,0.142,0.305,0.18c0,0.229-0.453,0.442-1.623,0.736c2.703,0.153,3.842,2.19,4.137,3.739
		c0.441,0.098,1.354,0.31,2.26-0.061c-0.213,0.511-0.77,0.925-2.064,1.045c0.264,0.123,0.979,0.375,2.143,0.237
		C58.44,15.558,57.552,15.746,56.779,15.663z"/>
	<path fill="#7C7C7C" d="M49.507,33.207c-8.551,0-15.483,6.932-15.483,15.482c0,8.552,6.933,15.484,15.483,15.484
		s15.482-6.933,15.482-15.484C64.989,40.139,58.058,33.207,49.507,33.207z M56.779,48.869c-1.458,5.454-7.12,6.37-9.403,6.37
		c-2.869,0-5.865-1.207-7.455-3.711c0.731,0.597,3.637,2.716,7.062-0.298c-0.936,0.118-2.201-0.746-0.684-1.638
		c-1.141,0.024-1.895-0.436-2.295-1.213c0.176-0.206,0.637-0.522,1.297-0.522c-1.133-0.239-2.105-1.063-2.105-1.959
		c0.281-0.059,0.854-0.149,1.082-0.149c-1.162-0.682-1.634-1.683-1.557-2.402c1.266,0.479,4.693,1.562,6.387,3.386
		c0.791-2.148,1.809-4.016,3.002-4.686c0.012,0.037-0.193,0.451-0.193,0.451s-0.002,0.004-0.003,0.007
		c0.302-0.243,1.038-0.62,1.414-0.62c0.034,0.092-0.065,0.32-0.604,0.617c0.445-0.169,0.843-0.312,1.187-0.312
		c0.285,0,0.305,0.142,0.305,0.18c0,0.229-0.453,0.442-1.623,0.736c2.703,0.152,3.842,2.189,4.137,3.738
		c0.441,0.099,1.354,0.311,2.26-0.061c-0.213,0.512-0.77,0.926-2.064,1.045c0.264,0.123,0.979,0.375,2.143,0.238
		C58.44,48.765,57.552,48.953,56.779,48.869z"/>
</g>
</svg>
