<?xml version="1.0" encoding="utf-8"?>
<!-- Generator: Adobe Illustrator 14.0.0, SVG Export Plug-In . SVG Version: 6.00 Build 43363)  -->
<!DOCTYPE svg PUBLIC "-//W3C//DTD SVG 1.1//EN" "http://www.w3.org/Graphics/SVG/1.1/DTD/svg11.dtd">
<svg version="1.1" id="Layer_1" xmlns="http://www.w3.org/2000/svg" xmlns:xlink="http://www.w3.org/1999/xlink" x="0px" y="0px"
	 width="103.915px" height="18.42px" viewBox="0 0 103.915 18.42" enable-background="new 0 0 103.915 18.42" xml:space="preserve">
<g>
	<path fill="#383838" d="M8.127,5.276C8.15,5.208,8.15,5.095,8.172,5.027V4.982c0.136-0.838,0.317-1.11,0.657-1.11
		c0.295,0,0.499,0.227,0.499,0.566v2.831c0,0.362-0.159,0.566-0.43,0.566c-0.204,0-0.295-0.068-0.453-0.407
		C7.652,5.797,6.338,4.959,4.618,4.959c-1.359,0-2.355,0.702-2.355,1.698c0,0.974,0.77,1.381,3.012,1.631
		C6.95,8.469,7.991,8.764,8.648,9.194c0.792,0.543,1.246,1.336,1.246,2.219c0,1.766-1.607,3.034-3.804,3.034
		c-1.449,0-2.423-0.408-3.759-1.495c-0.023,0.113-0.045,0.339-0.068,0.453v0.068c-0.113,0.815-0.271,1.109-0.634,1.109
		c-0.249,0-0.43-0.181-0.43-0.43v-3.487c0-0.204,0.158-0.362,0.385-0.362c0.249,0,0.408,0.159,0.634,0.702
		c0.226,0.521,0.339,0.702,0.611,1.019c0.77,0.906,1.925,1.427,3.238,1.427c1.63,0,2.785-0.793,2.785-1.925
		c0-0.543-0.271-1.042-0.815-1.404C7.629,9.851,6.678,9.624,5.41,9.488c-2.989-0.339-4.212-1.132-4.212-2.74S2.647,3.985,4.64,3.985
		c1.313,0,2.4,0.431,3.487,1.336V5.276z"/>
	<path fill="#383838" d="M17.839,5.321c-1.381,0.022-1.721-0.091-1.721-0.566c0-0.294,0.249-0.498,0.611-0.498h0.272
		c1.766-0.045,2.355-0.68,2.355-2.514v-0.43c-0.022-0.748,0.182-1.178,0.566-1.178c0.271,0,0.543,0.227,0.543,0.476v3.601h3.442
		c0.362,0,0.611,0.227,0.611,0.543s-0.249,0.521-0.611,0.521h-3.51v5.955c0,1.382,0.702,2.151,1.947,2.151
		c1.268,0,1.993-0.77,2.061-2.219v-0.136c0.022-0.543,0.181-0.77,0.499-0.77c0.408,0,0.565,0.204,0.565,0.77
		c0,2.106-1.223,3.396-3.192,3.396c-1.879,0-2.989-1.086-2.989-2.921V5.276L17.839,5.321z"/>
	<path fill="#383838" d="M31.492,5.299c-0.997,0.022-1.291-0.113-1.291-0.543c0-0.317,0.249-0.543,0.612-0.543h3.962
		c0.34,0,0.589,0.227,0.589,0.543s-0.249,0.543-0.589,0.543h-1.223l2.808,7.02l2.785-7.02h-1.223c-0.34,0-0.611-0.227-0.611-0.543
		s0.271-0.543,0.611-0.543h3.895c0.363,0,0.611,0.227,0.611,0.543s-0.249,0.543-0.611,0.543h-1.472l-4.303,10.847
		c-0.589,1.495-1.653,2.333-3.035,2.333c-1.562,0-2.808-1.064-2.808-2.378c0-0.77,0.476-1.313,1.132-1.313
		c0.566,0,0.996,0.43,0.996,1.042c0,0.362-0.204,0.77-0.498,0.996c-0.068,0.068-0.091,0.091-0.091,0.136
		c0,0.249,0.612,0.475,1.223,0.475c1.155,0,1.698-0.634,2.559-3.012l0.045-0.113c0.045-0.136,0.09-0.249,0.181-0.476l0.022-0.068
		l-3.397-8.469H31.492z"/>
	<path fill="#383838" d="M48.631,1.336c-0.838,0-1.97-0.045-2.174-0.09c-0.204-0.091-0.34-0.272-0.34-0.499
		c0-0.294,0.25-0.521,0.611-0.521h5.48v12.907h3.827c0.362,0,0.611,0.227,0.611,0.521c0,0.317-0.249,0.543-0.611,0.543H47.25
		c-0.362,0-0.611-0.227-0.611-0.521c0-0.317,0.249-0.543,0.611-0.543h3.85V1.268L48.631,1.336z"/>
	<path fill="#383838" d="M64.638,5.321c-0.521,0.022-1.381-0.022-1.584-0.045C62.781,5.208,62.6,5.004,62.6,4.755
		c0-0.317,0.249-0.521,0.612-0.521h4.37v8.899h2.966c0.362,0,0.611,0.227,0.611,0.521c0,0.317-0.249,0.543-0.611,0.543h-7.224
		c-0.362,0-0.611-0.227-0.611-0.521c0-0.317,0.249-0.543,0.611-0.543h3.125V5.299L64.638,5.321z M67.831,1.064
		c0,0.589-0.453,1.042-1.042,1.042c-0.566,0-1.019-0.453-1.019-1.019c0-0.566,0.453-1.042,0.974-1.042
		C67.356,0.045,67.831,0.476,67.831,1.064z"/>
	<path fill="#383838" d="M85.106,5.276c0.022-0.068,0.022-0.182,0.045-0.25V4.982c0.136-0.838,0.317-1.11,0.657-1.11
		c0.295,0,0.499,0.227,0.499,0.566v2.831c0,0.362-0.159,0.566-0.43,0.566c-0.204,0-0.295-0.068-0.454-0.407
		c-0.792-1.631-2.105-2.469-3.827-2.469c-1.359,0-2.354,0.702-2.354,1.698c0,0.974,0.77,1.381,3.011,1.631
		c1.676,0.181,2.717,0.476,3.374,0.906c0.792,0.543,1.245,1.336,1.245,2.219c0,1.766-1.607,3.034-3.804,3.034
		c-1.449,0-2.423-0.408-3.759-1.495c-0.022,0.113-0.045,0.339-0.067,0.453v0.068c-0.114,0.815-0.272,1.109-0.634,1.109
		c-0.25,0-0.431-0.181-0.431-0.43v-3.487c0-0.204,0.159-0.362,0.385-0.362c0.25,0,0.407,0.159,0.634,0.702
		c0.227,0.521,0.34,0.702,0.611,1.019c0.77,0.906,1.925,1.427,3.238,1.427c1.631,0,2.785-0.793,2.785-1.925
		c0-0.543-0.271-1.042-0.815-1.404c-0.407-0.271-1.358-0.498-2.626-0.634c-2.99-0.339-4.212-1.132-4.212-2.74
		s1.449-2.763,3.442-2.763c1.313,0,2.4,0.431,3.487,1.336V5.276z"/>
	<path fill="#383838" d="M94.817,5.321c-1.381,0.022-1.721-0.091-1.721-0.566c0-0.294,0.249-0.498,0.611-0.498h0.271
		c1.767-0.045,2.355-0.68,2.355-2.514v-0.43c-0.022-0.748,0.181-1.178,0.566-1.178c0.271,0,0.543,0.227,0.543,0.476v3.601h3.442
		c0.362,0,0.611,0.227,0.611,0.543s-0.249,0.521-0.611,0.521h-3.51v5.955c0,1.382,0.702,2.151,1.947,2.151
		c1.268,0,1.993-0.77,2.061-2.219v-0.136c0.023-0.543,0.182-0.77,0.499-0.77c0.408,0,0.566,0.204,0.566,0.77
		c0,2.106-1.223,3.396-3.193,3.396c-1.879,0-2.989-1.086-2.989-2.921V5.276L94.817,5.321z"/>
</g>
</svg>
