<?xml version="1.0" encoding="utf-8"?>
<!-- Generator: Adobe Illustrator 14.0.0, SVG Export Plug-In . SVG Version: 6.00 Build 43363)  -->
<!DOCTYPE svg PUBLIC "-//W3C//DTD SVG 1.1//EN" "http://www.w3.org/Graphics/SVG/1.1/DTD/svg11.dtd">
<svg version="1.1" id="Layer_1" xmlns="http://www.w3.org/2000/svg" xmlns:xlink="http://www.w3.org/1999/xlink" x="0px" y="0px"
	 width="214.222px" height="18.42px" viewBox="0 0 214.222 18.42" enable-background="new 0 0 214.222 18.42" xml:space="preserve">
<g>
	<path fill="#383838" d="M9.058,9.194c0,2.966-1.947,5.23-4.483,5.23C1.925,14.424,0,12.25,0,9.262C0,6.34,1.97,4.008,4.438,4.008
		C7.133,4.008,9.058,6.182,9.058,9.194z M1.132,9.239c0,2.423,1.404,4.144,3.419,4.144c1.993,0,3.396-1.721,3.396-4.144
		c0-2.355-1.427-4.144-3.284-4.144C2.536,5.095,1.132,6.748,1.132,9.239z"/>
	<path fill="#383838" d="M14.648,5.299c-0.838,0-1.087-0.136-1.087-0.543c0-0.317,0.249-0.543,0.611-0.543h2.265
		c0.362,0,0.611,0.227,0.611,0.543c0,0.294-0.249,0.521-0.611,0.521l-0.77,0.022l1.223,5.095c0.272,1.11,0.43,1.902,0.589,2.989
		h0.045c0.136-1.109,0.249-1.812,0.566-3.261l1.019-4.823l-0.748-0.022C18,5.276,17.75,5.05,17.75,4.755
		c0-0.317,0.25-0.543,0.611-0.543h3.148c0.362,0,0.611,0.227,0.611,0.543s-0.249,0.521-0.611,0.521l-0.725,0.022l0.974,4.461
		c0.249,1.155,0.408,1.97,0.566,3.147l0.067,0.521h0.046l0.045-0.453c0.159-1.019,0.385-2.151,0.589-3.057l1.109-4.62l-0.657-0.022
		c-0.362,0-0.611-0.227-0.611-0.521c0-0.317,0.25-0.543,0.611-0.543h2.151c0.362,0,0.611,0.227,0.611,0.543
		c0,0.294-0.249,0.521-0.611,0.521l-0.476,0.022l-2.265,9.125h-1.177l-1.268-6.046c-0.045-0.249-0.136-0.657-0.227-1.268
		l-0.09-0.407l-0.022-0.204l-0.046-0.227l-0.158-0.996h-0.045l-0.022,0.362c-0.181,1.155-0.317,1.993-0.499,2.854l-1.291,5.933
		h-1.178L14.648,5.299z"/>
	<path fill="#383838" d="M32.49,7.065h0.045c1.54-2.106,2.898-3.012,4.461-3.012c1.585,0,2.491,1.064,2.491,2.944v6.137h1.472
		c0.362,0,0.611,0.227,0.611,0.521c0,0.317-0.249,0.543-0.611,0.543h-4.008c-0.362,0-0.611-0.227-0.611-0.543
		c0-0.294,0.249-0.521,0.611-0.521h1.427V7.382c0-1.517-0.498-2.264-1.472-2.264c-0.906,0-1.925,0.521-2.854,1.472
		c-0.702,0.702-1.064,1.268-1.562,2.423v4.121h1.54c0.339,0,0.611,0.227,0.611,0.521c0,0.317-0.272,0.543-0.611,0.543h-4.144
		c-0.362,0-0.611-0.227-0.611-0.543c0-0.294,0.249-0.521,0.611-0.521h1.472V5.299H29.75c-0.34,0-0.611-0.227-0.611-0.543
		s0.249-0.521,0.611-0.521h2.74V7.065z"/>
	<path fill="#383838" d="M47.183,9.669c-0.022,2.106,1.54,3.714,3.646,3.714c1.449,0,2.491-0.656,3.216-1.993
		c0.158-0.294,0.294-0.385,0.566-0.385c0.294,0,0.498,0.136,0.498,0.385c0,0.408-0.408,1.132-0.974,1.721
		c-0.883,0.883-1.993,1.336-3.329,1.336c-2.875,0-4.8-2.083-4.8-5.186c0-3.08,1.925-5.253,4.665-5.253
		c1.653,0,2.967,0.747,3.827,2.174c0.498,0.86,0.702,1.675,0.725,3.102h-8.039V9.669z M54.045,8.22
		c-0.181-1.042-0.385-1.585-0.861-2.105c-0.634-0.68-1.54-1.064-2.582-1.064c-1.857,0-2.944,1.042-3.329,3.17H54.045z"/>
	<path fill="#383838" d="M65.342,6.454c1.358-1.607,2.604-2.355,4.008-2.355c1.404,0,2.377,0.86,2.377,2.061
		c0,0.792-0.43,1.313-1.064,1.313c-0.611,0-1.042-0.476-1.042-1.177c0-0.385,0.113-0.68,0.408-0.997
		c-0.272-0.136-0.408-0.159-0.612-0.159c-1.268,0-2.785,0.883-3.532,2.083c-0.249,0.408-0.476,1.019-0.476,1.246v4.665h2.514
		c0.362,0,0.611,0.227,0.611,0.521c0,0.317-0.249,0.543-0.611,0.543h-6.137c-0.362,0-0.611-0.227-0.611-0.543
		c0-0.294,0.249-0.521,0.611-0.521h2.468V5.299H61.9c-0.34,0-0.589-0.227-0.589-0.543S61.56,4.234,61.9,4.234h3.442V6.454z"/>
	<path fill="#383838" d="M89.541,0.43c0-0.294,0.181-0.43,0.589-0.43c0.385,0,0.543,0.158,0.543,0.498v17.504
		c0,0.408-0.136,0.521-0.612,0.521c-0.385,0-0.521-0.113-0.521-0.476V0.43z"/>
	<path fill="#383838" d="M117.435,5.276c0.022-0.068,0.022-0.182,0.045-0.25V4.982c0.136-0.838,0.317-1.11,0.657-1.11
		c0.295,0,0.499,0.227,0.499,0.566v2.831c0,0.362-0.159,0.566-0.43,0.566c-0.204,0-0.295-0.068-0.453-0.407
		c-0.792-1.631-2.106-2.469-3.827-2.469c-1.359,0-2.355,0.702-2.355,1.698c0,0.974,0.77,1.381,3.012,1.631
		c1.676,0.181,2.717,0.476,3.374,0.906c0.792,0.543,1.246,1.336,1.246,2.219c0,1.766-1.607,3.034-3.804,3.034
		c-1.449,0-2.423-0.408-3.759-1.495c-0.023,0.113-0.045,0.339-0.068,0.453v0.068c-0.113,0.815-0.271,1.109-0.634,1.109
		c-0.249,0-0.43-0.181-0.43-0.43v-3.487c0-0.204,0.158-0.362,0.385-0.362c0.249,0,0.408,0.159,0.634,0.702
		c0.226,0.521,0.339,0.702,0.611,1.019c0.77,0.906,1.925,1.427,3.238,1.427c1.63,0,2.785-0.793,2.785-1.925
		c0-0.543-0.271-1.042-0.815-1.404c-0.407-0.271-1.358-0.498-2.626-0.634c-2.989-0.339-4.212-1.132-4.212-2.74
		s1.449-2.763,3.442-2.763c1.313,0,2.4,0.431,3.487,1.336V5.276z"/>
	<path fill="#383838" d="M127.146,5.321c-1.381,0.022-1.721-0.091-1.721-0.566c0-0.294,0.249-0.498,0.611-0.498h0.272
		c1.766-0.045,2.355-0.68,2.355-2.514v-0.43c-0.022-0.748,0.182-1.178,0.566-1.178c0.271,0,0.543,0.227,0.543,0.476v3.601h3.442
		c0.362,0,0.611,0.227,0.611,0.543s-0.249,0.521-0.611,0.521h-3.51v5.955c0,1.382,0.702,2.151,1.947,2.151
		c1.268,0,1.993-0.77,2.061-2.219v-0.136c0.022-0.543,0.181-0.77,0.499-0.77c0.408,0,0.565,0.204,0.565,0.77
		c0,2.106-1.223,3.396-3.192,3.396c-1.879,0-2.989-1.086-2.989-2.921V5.276L127.146,5.321z"/>
	<path fill="#383838" d="M140.799,5.299c-0.997,0.022-1.291-0.113-1.291-0.543c0-0.317,0.249-0.543,0.612-0.543h3.962
		c0.34,0,0.589,0.227,0.589,0.543s-0.249,0.543-0.589,0.543h-1.223l2.808,7.02l2.785-7.02h-1.223c-0.34,0-0.611-0.227-0.611-0.543
		s0.271-0.543,0.611-0.543h3.895c0.363,0,0.611,0.227,0.611,0.543s-0.249,0.543-0.611,0.543h-1.472l-4.303,10.847
		c-0.589,1.495-1.653,2.333-3.035,2.333c-1.562,0-2.808-1.064-2.808-2.378c0-0.77,0.476-1.313,1.132-1.313
		c0.566,0,0.996,0.43,0.996,1.042c0,0.362-0.204,0.77-0.498,0.996c-0.068,0.068-0.091,0.091-0.091,0.136
		c0,0.249,0.612,0.475,1.223,0.475c1.155,0,1.698-0.634,2.559-3.012l0.045-0.113c0.045-0.136,0.09-0.249,0.181-0.476l0.022-0.068
		l-3.397-8.469H140.799z"/>
	<path fill="#383838" d="M157.938,1.336c-0.838,0-1.97-0.045-2.174-0.09c-0.204-0.091-0.34-0.272-0.34-0.499
		c0-0.294,0.25-0.521,0.611-0.521h5.48v12.907h3.827c0.362,0,0.611,0.227,0.611,0.521c0,0.317-0.249,0.543-0.611,0.543h-8.786
		c-0.362,0-0.611-0.227-0.611-0.521c0-0.317,0.249-0.543,0.611-0.543h3.85V1.268L157.938,1.336z"/>
	<path fill="#383838" d="M173.945,5.321c-0.521,0.022-1.381-0.022-1.584-0.045c-0.272-0.068-0.453-0.272-0.453-0.521
		c0-0.317,0.249-0.521,0.612-0.521h4.37v8.899h2.966c0.362,0,0.611,0.227,0.611,0.521c0,0.317-0.249,0.543-0.611,0.543h-7.224
		c-0.362,0-0.611-0.227-0.611-0.521c0-0.317,0.249-0.543,0.611-0.543h3.125V5.299L173.945,5.321z M177.138,1.064
		c0,0.589-0.453,1.042-1.042,1.042c-0.566,0-1.019-0.453-1.019-1.019c0-0.566,0.453-1.042,0.974-1.042
		C176.663,0.045,177.138,0.476,177.138,1.064z"/>
	<path fill="#383838" d="M194.414,5.276c0.022-0.068,0.022-0.182,0.045-0.25V4.982c0.136-0.838,0.317-1.11,0.657-1.11
		c0.295,0,0.499,0.227,0.499,0.566v2.831c0,0.362-0.159,0.566-0.43,0.566c-0.204,0-0.295-0.068-0.454-0.407
		c-0.792-1.631-2.105-2.469-3.827-2.469c-1.359,0-2.354,0.702-2.354,1.698c0,0.974,0.77,1.381,3.011,1.631
		c1.676,0.181,2.717,0.476,3.374,0.906c0.792,0.543,1.245,1.336,1.245,2.219c0,1.766-1.607,3.034-3.804,3.034
		c-1.449,0-2.423-0.408-3.759-1.495c-0.022,0.113-0.045,0.339-0.067,0.453v0.068c-0.114,0.815-0.272,1.109-0.634,1.109
		c-0.25,0-0.431-0.181-0.431-0.43v-3.487c0-0.204,0.159-0.362,0.385-0.362c0.25,0,0.407,0.159,0.634,0.702
		c0.227,0.521,0.34,0.702,0.611,1.019c0.77,0.906,1.925,1.427,3.238,1.427c1.631,0,2.785-0.793,2.785-1.925
		c0-0.543-0.271-1.042-0.815-1.404c-0.407-0.271-1.358-0.498-2.626-0.634c-2.99-0.339-4.212-1.132-4.212-2.74
		s1.449-2.763,3.442-2.763c1.313,0,2.4,0.431,3.487,1.336V5.276z"/>
	<path fill="#383838" d="M204.125,5.321c-1.381,0.022-1.721-0.091-1.721-0.566c0-0.294,0.249-0.498,0.611-0.498h0.271
		c1.767-0.045,2.355-0.68,2.355-2.514v-0.43c-0.022-0.748,0.181-1.178,0.566-1.178c0.271,0,0.543,0.227,0.543,0.476v3.601h3.442
		c0.362,0,0.611,0.227,0.611,0.543s-0.249,0.521-0.611,0.521h-3.51v5.955c0,1.382,0.702,2.151,1.947,2.151
		c1.268,0,1.993-0.77,2.061-2.219v-0.136c0.023-0.543,0.182-0.77,0.499-0.77c0.408,0,0.566,0.204,0.566,0.77
		c0,2.106-1.223,3.396-3.193,3.396c-1.879,0-2.989-1.086-2.989-2.921V5.276L204.125,5.321z"/>
</g>
</svg>
