<?xml version="1.0" encoding="utf-8"?>
<!-- Generator: Adobe Illustrator 14.0.0, SVG Export Plug-In . SVG Version: 6.00 Build 43363)  -->
<!DOCTYPE svg PUBLIC "-//W3C//DTD SVG 1.1//EN" "http://www.w3.org/Graphics/SVG/1.1/DTD/svg11.dtd">
<svg version="1.1" id="Layer_1" xmlns="http://www.w3.org/2000/svg" xmlns:xlink="http://www.w3.org/1999/xlink" x="0px" y="0px"
	 width="58px" height="57.925px" viewBox="0 0 58 57.925" enable-background="new 0 0 58 57.925" xml:space="preserve">
<g>
	<polygon points="10.622,15.54 10.622,23.879 24.343,23.879 24.343,47.181 33.552,47.181 33.552,23.879 48.143,23.879 48.143,15.54 
			"/>
	<path d="M28.949,0C12.987,0,0,12.987,0,28.95C0,44.913,12.987,57.9,28.949,57.9C44.912,57.9,57.9,44.913,57.9,28.95
		C57.9,12.987,44.912,0,28.949,0z M28.949,55.441c-14.606,0-26.491-11.884-26.491-26.491c0-14.608,11.885-26.492,26.491-26.492
		c14.608,0,26.493,11.884,26.493,26.492C55.442,43.558,43.558,55.441,28.949,55.441z"/>
</g>
</svg>
